<?xml version="1.0" encoding="UTF-8" standalone="no"?>
<!DOCTYPE svg PUBLIC "-//W3C//DTD SVG 1.1//EN"
 "http://www.w3.org/Graphics/SVG/1.1/DTD/svg11.dtd">
<!-- Generated by graphviz version 2.47.0 (20210316.0004)
 -->
<!-- Title: dbml Pages: 1 -->
<svg width="1944pt" height="1569pt"
 viewBox="0.00 0.00 1943.93 1568.92" xmlns="http://www.w3.org/2000/svg" xmlns:xlink="http://www.w3.org/1999/xlink">
<g id="graph0" class="graph" transform="scale(1 1) rotate(0) translate(4 1564.92)">
<title>dbml</title>
<!-- User -->
<g id="User" class="node">
<title>User</title>
<ellipse fill="none" stroke="black" stroke-width="0" cx="333.75" cy="-407.96" rx="274.21" ry="257.27"/>
<polygon fill="#1d71b8" stroke="transparent" points="141.75,-527.96 141.75,-587.96 525.75,-587.96 525.75,-527.96 141.75,-527.96"/>
<polygon fill="none" stroke="#29235c" points="141.75,-527.96 141.75,-587.96 525.75,-587.96 525.75,-527.96 141.75,-527.96"/>
<text text-anchor="start" x="237.73" y="-549.16" font-family="Helvetica,sans-Serif" font-weight="bold" font-size="32.00" fill="#ffffff"> &#160;&#160;&#160;&#160;&#160;&#160;User &#160;&#160;&#160;&#160;&#160;&#160;</text>
<polygon fill="#e7e2dd" stroke="transparent" points="141.75,-467.96 141.75,-527.96 525.75,-527.96 525.75,-467.96 141.75,-467.96"/>
<polygon fill="none" stroke="#29235c" points="141.75,-467.96 141.75,-527.96 525.75,-527.96 525.75,-467.96 141.75,-467.96"/>
<text text-anchor="start" x="152.75" y="-489.16" font-family="Helvetica,sans-Serif" font-weight="bold" font-size="32.00" fill="#29235c">id</text>
<text text-anchor="start" x="177.64" y="-489.16" font-family="Helvetica,sans-Serif" font-size="32.00" fill="#29235c"> &#160;&#160;&#160;</text>
<text text-anchor="start" x="480.97" y="-489.16" font-family="Helvetica,sans-Serif" font-style="italic" font-size="32.00" fill="#29235c">int</text>
<polygon fill="#e7e2dd" stroke="transparent" points="141.75,-407.96 141.75,-467.96 525.75,-467.96 525.75,-407.96 141.75,-407.96"/>
<polygon fill="none" stroke="#29235c" points="141.75,-407.96 141.75,-467.96 525.75,-467.96 525.75,-407.96 141.75,-407.96"/>
<text text-anchor="start" x="152.75" y="-428.16" font-family="Helvetica,sans-Serif" font-size="32.00" fill="#29235c">name &#160;&#160;&#160;</text>
<text text-anchor="start" x="408.08" y="-429.16" font-family="Helvetica,sans-Serif" font-style="italic" font-size="32.00" fill="#29235c">varchar</text>
<polygon fill="#e7e2dd" stroke="transparent" points="141.75,-347.96 141.75,-407.96 525.75,-407.96 525.75,-347.96 141.75,-347.96"/>
<polygon fill="none" stroke="#29235c" points="141.75,-347.96 141.75,-407.96 525.75,-407.96 525.75,-347.96 141.75,-347.96"/>
<text text-anchor="start" x="152.75" y="-368.16" font-family="Helvetica,sans-Serif" font-size="32.00" fill="#29235c">email &#160;&#160;&#160;</text>
<text text-anchor="start" x="408.08" y="-369.16" font-family="Helvetica,sans-Serif" font-style="italic" font-size="32.00" fill="#29235c">varchar</text>
<polygon fill="#e7e2dd" stroke="transparent" points="141.75,-287.96 141.75,-347.96 525.75,-347.96 525.75,-287.96 141.75,-287.96"/>
<polygon fill="none" stroke="#29235c" points="141.75,-287.96 141.75,-347.96 525.75,-347.96 525.75,-287.96 141.75,-287.96"/>
<text text-anchor="start" x="152.75" y="-308.16" font-family="Helvetica,sans-Serif" font-size="32.00" fill="#29235c">password &#160;&#160;&#160;</text>
<text text-anchor="start" x="408.08" y="-309.16" font-family="Helvetica,sans-Serif" font-style="italic" font-size="32.00" fill="#29235c">varchar</text>
<polygon fill="#e7e2dd" stroke="transparent" points="141.75,-227.96 141.75,-287.96 525.75,-287.96 525.75,-227.96 141.75,-227.96"/>
<polygon fill="none" stroke="#29235c" points="141.75,-227.96 141.75,-287.96 525.75,-287.96 525.75,-227.96 141.75,-227.96"/>
<text text-anchor="start" x="152.67" y="-248.16" font-family="Helvetica,sans-Serif" font-size="32.00" fill="#29235c">multiple_addresses &#160;&#160;&#160;</text>
<text text-anchor="start" x="463.47" y="-249.16" font-family="Helvetica,sans-Serif" font-style="italic" font-size="32.00" fill="#29235c">text</text>
<polygon fill="none" stroke="#29235c" stroke-width="2" points="140.75,-226.96 140.75,-588.96 526.75,-588.96 526.75,-226.96 140.75,-226.96"/>
</g>
<!-- Order -->
<g id="Order" class="node">
<title>Order</title>
<ellipse fill="none" stroke="black" stroke-width="0" cx="1008.98" cy="-687.96" rx="305.44" ry="511.89"/>
<polygon fill="#1d71b8" stroke="transparent" points="794.98,-987.96 794.98,-1047.96 1222.98,-1047.96 1222.98,-987.96 794.98,-987.96"/>
<polygon fill="none" stroke="#29235c" points="794.98,-987.96 794.98,-1047.96 1222.98,-1047.96 1222.98,-987.96 794.98,-987.96"/>
<text text-anchor="start" x="905.84" y="-1009.16" font-family="Helvetica,sans-Serif" font-weight="bold" font-size="32.00" fill="#ffffff"> &#160;&#160;&#160;&#160;&#160;&#160;Order &#160;&#160;&#160;&#160;&#160;&#160;</text>
<polygon fill="#e7e2dd" stroke="transparent" points="794.98,-927.96 794.98,-987.96 1222.98,-987.96 1222.98,-927.96 794.98,-927.96"/>
<polygon fill="none" stroke="#29235c" points="794.98,-927.96 794.98,-987.96 1222.98,-987.96 1222.98,-927.96 794.98,-927.96"/>
<text text-anchor="start" x="805.98" y="-949.16" font-family="Helvetica,sans-Serif" font-weight="bold" font-size="32.00" fill="#29235c">id</text>
<text text-anchor="start" x="830.87" y="-949.16" font-family="Helvetica,sans-Serif" font-size="32.00" fill="#29235c"> &#160;&#160;&#160;</text>
<text text-anchor="start" x="1178.2" y="-949.16" font-family="Helvetica,sans-Serif" font-style="italic" font-size="32.00" fill="#29235c">int</text>
<polygon fill="#e7e2dd" stroke="transparent" points="794.98,-867.96 794.98,-927.96 1222.98,-927.96 1222.98,-867.96 794.98,-867.96"/>
<polygon fill="none" stroke="#29235c" points="794.98,-867.96 794.98,-927.96 1222.98,-927.96 1222.98,-867.96 794.98,-867.96"/>
<text text-anchor="start" x="805.98" y="-888.16" font-family="Helvetica,sans-Serif" font-size="32.00" fill="#29235c">user_id &#160;&#160;&#160;</text>
<text text-anchor="start" x="1178.2" y="-889.16" font-family="Helvetica,sans-Serif" font-style="italic" font-size="32.00" fill="#29235c">int</text>
<polygon fill="#e7e2dd" stroke="transparent" points="794.98,-807.96 794.98,-867.96 1222.98,-867.96 1222.98,-807.96 794.98,-807.96"/>
<polygon fill="none" stroke="#29235c" points="794.98,-807.96 794.98,-867.96 1222.98,-867.96 1222.98,-807.96 794.98,-807.96"/>
<text text-anchor="start" x="805.98" y="-828.16" font-family="Helvetica,sans-Serif" font-size="32.00" fill="#29235c">store_id &#160;&#160;&#160;</text>
<text text-anchor="start" x="1178.2" y="-829.16" font-family="Helvetica,sans-Serif" font-style="italic" font-size="32.00" fill="#29235c">int</text>
<polygon fill="#e7e2dd" stroke="transparent" points="794.98,-747.96 794.98,-807.96 1222.98,-807.96 1222.98,-747.96 794.98,-747.96"/>
<polygon fill="none" stroke="#29235c" points="794.98,-747.96 794.98,-807.96 1222.98,-807.96 1222.98,-747.96 794.98,-747.96"/>
<text text-anchor="start" x="805.98" y="-768.16" font-family="Helvetica,sans-Serif" font-size="32.00" fill="#29235c">tracking_id &#160;&#160;&#160;</text>
<text text-anchor="start" x="1178.2" y="-769.16" font-family="Helvetica,sans-Serif" font-style="italic" font-size="32.00" fill="#29235c">int</text>
<polygon fill="#e7e2dd" stroke="transparent" points="794.98,-687.96 794.98,-747.96 1222.98,-747.96 1222.98,-687.96 794.98,-687.96"/>
<polygon fill="none" stroke="#29235c" points="794.98,-687.96 794.98,-747.96 1222.98,-747.96 1222.98,-687.96 794.98,-687.96"/>
<text text-anchor="start" x="805.98" y="-708.16" font-family="Helvetica,sans-Serif" font-size="32.00" fill="#29235c">payment_id &#160;&#160;&#160;</text>
<text text-anchor="start" x="1178.2" y="-709.16" font-family="Helvetica,sans-Serif" font-style="italic" font-size="32.00" fill="#29235c">int</text>
<polygon fill="#e7e2dd" stroke="transparent" points="794.98,-627.96 794.98,-687.96 1222.98,-687.96 1222.98,-627.96 794.98,-627.96"/>
<polygon fill="none" stroke="#29235c" points="794.98,-627.96 794.98,-687.96 1222.98,-687.96 1222.98,-627.96 794.98,-627.96"/>
<text text-anchor="start" x="805.98" y="-648.16" font-family="Helvetica,sans-Serif" font-size="32.00" fill="#29235c">favorites &#160;&#160;&#160;</text>
<text text-anchor="start" x="1151.51" y="-649.16" font-family="Helvetica,sans-Serif" font-style="italic" font-size="32.00" fill="#29235c">bool</text>
<polygon fill="#e7e2dd" stroke="transparent" points="794.98,-567.96 794.98,-627.96 1222.98,-627.96 1222.98,-567.96 794.98,-567.96"/>
<polygon fill="none" stroke="#29235c" points="794.98,-567.96 794.98,-627.96 1222.98,-627.96 1222.98,-567.96 794.98,-567.96"/>
<text text-anchor="start" x="805.66" y="-588.16" font-family="Helvetica,sans-Serif" font-size="32.00" fill="#29235c">scheduled_time &#160;&#160;&#160;</text>
<text text-anchor="start" x="1064.7" y="-589.16" font-family="Helvetica,sans-Serif" font-style="italic" font-size="32.00" fill="#29235c">timestamp</text>
<polygon fill="#e7e2dd" stroke="transparent" points="794.98,-507.96 794.98,-567.96 1222.98,-567.96 1222.98,-507.96 794.98,-507.96"/>
<polygon fill="none" stroke="#29235c" points="794.98,-507.96 794.98,-567.96 1222.98,-567.96 1222.98,-507.96 794.98,-507.96"/>
<text text-anchor="start" x="805.98" y="-528.16" font-family="Helvetica,sans-Serif" font-size="32.00" fill="#29235c">review_rating &#160;&#160;&#160;</text>
<text text-anchor="start" x="1178.2" y="-529.16" font-family="Helvetica,sans-Serif" font-style="italic" font-size="32.00" fill="#29235c">int</text>
<polygon fill="#e7e2dd" stroke="transparent" points="794.98,-447.96 794.98,-507.96 1222.98,-507.96 1222.98,-447.96 794.98,-447.96"/>
<polygon fill="none" stroke="#29235c" points="794.98,-447.96 794.98,-507.96 1222.98,-507.96 1222.98,-447.96 794.98,-447.96"/>
<text text-anchor="start" x="805.98" y="-468.16" font-family="Helvetica,sans-Serif" font-size="32.00" fill="#29235c">review_comment &#160;&#160;&#160;</text>
<text text-anchor="start" x="1160.4" y="-469.16" font-family="Helvetica,sans-Serif" font-style="italic" font-size="32.00" fill="#29235c">text</text>
<polygon fill="#e7e2dd" stroke="transparent" points="794.98,-387.96 794.98,-447.96 1222.98,-447.96 1222.98,-387.96 794.98,-387.96"/>
<polygon fill="none" stroke="#29235c" points="794.98,-387.96 794.98,-447.96 1222.98,-447.96 1222.98,-387.96 794.98,-387.96"/>
<text text-anchor="start" x="805.98" y="-408.16" font-family="Helvetica,sans-Serif" font-size="32.00" fill="#29235c">referral_id &#160;&#160;&#160;</text>
<text text-anchor="start" x="1178.2" y="-409.16" font-family="Helvetica,sans-Serif" font-style="italic" font-size="32.00" fill="#29235c">int</text>
<polygon fill="#e7e2dd" stroke="transparent" points="794.98,-327.96 794.98,-387.96 1222.98,-387.96 1222.98,-327.96 794.98,-327.96"/>
<polygon fill="none" stroke="#29235c" points="794.98,-327.96 794.98,-387.96 1222.98,-387.96 1222.98,-327.96 794.98,-327.96"/>
<text text-anchor="start" x="805.98" y="-348.16" font-family="Helvetica,sans-Serif" font-size="32.00" fill="#29235c">order_history &#160;&#160;&#160;</text>
<text text-anchor="start" x="1160.4" y="-349.16" font-family="Helvetica,sans-Serif" font-style="italic" font-size="32.00" fill="#29235c">text</text>
<polygon fill="none" stroke="#29235c" stroke-width="2" points="793.98,-326.96 793.98,-1048.96 1223.98,-1048.96 1223.98,-326.96 793.98,-326.96"/>
</g>
<!-- User&#45;&gt;Order -->
<!-- User&#45;&gt;Order -->
<g id="edge2" class="edge">
<title>User:e&#45;&gt;Order:w</title>
<path fill="none" stroke="#29235c" stroke-width="3" d="M526.75,-497.96C626.92,-497.96 611.43,-590.97 667.51,-673.96 729.52,-765.73 682.78,-889.91 783.74,-897.59"/>
<polygon fill="#29235c" stroke="#29235c" stroke-width="3" points="783.86,-901.09 793.98,-897.96 784.11,-894.1 783.86,-901.09"/>
<text text-anchor="middle" x="800.2" y="-907.56" font-family="Helvetica,sans-Serif" font-size="32.00" fill="#29235c">*</text>
<text text-anchor="middle" x="517.86" y="-469.16" font-family="Helvetica,sans-Serif" font-size="32.00" fill="#29235c">1</text>
</g>
<!-- Payment -->
<g id="Payment" class="node">
<title>Payment</title>
<ellipse fill="none" stroke="black" stroke-width="0" cx="1643.19" cy="-927.96" rx="292.98" ry="172.57"/>
<polygon fill="#1d71b8" stroke="transparent" points="1438.19,-987.96 1438.19,-1047.96 1848.19,-1047.96 1848.19,-987.96 1438.19,-987.96"/>
<polygon fill="none" stroke="#29235c" points="1438.19,-987.96 1438.19,-1047.96 1848.19,-1047.96 1848.19,-987.96 1438.19,-987.96"/>
<text text-anchor="start" x="1517.82" y="-1009.16" font-family="Helvetica,sans-Serif" font-weight="bold" font-size="32.00" fill="#ffffff"> &#160;&#160;&#160;&#160;&#160;&#160;Payment &#160;&#160;&#160;&#160;&#160;&#160;</text>
<polygon fill="#e7e2dd" stroke="transparent" points="1438.19,-927.96 1438.19,-987.96 1848.19,-987.96 1848.19,-927.96 1438.19,-927.96"/>
<polygon fill="none" stroke="#29235c" points="1438.19,-927.96 1438.19,-987.96 1848.19,-987.96 1848.19,-927.96 1438.19,-927.96"/>
<text text-anchor="start" x="1449.19" y="-949.16" font-family="Helvetica,sans-Serif" font-weight="bold" font-size="32.00" fill="#29235c">id</text>
<text text-anchor="start" x="1474.08" y="-949.16" font-family="Helvetica,sans-Serif" font-size="32.00" fill="#29235c"> &#160;&#160;&#160;</text>
<text text-anchor="start" x="1803.41" y="-949.16" font-family="Helvetica,sans-Serif" font-style="italic" font-size="32.00" fill="#29235c">int</text>
<polygon fill="#e7e2dd" stroke="transparent" points="1438.19,-867.96 1438.19,-927.96 1848.19,-927.96 1848.19,-867.96 1438.19,-867.96"/>
<polygon fill="none" stroke="#29235c" points="1438.19,-867.96 1438.19,-927.96 1848.19,-927.96 1848.19,-867.96 1438.19,-867.96"/>
<text text-anchor="start" x="1449.19" y="-888.16" font-family="Helvetica,sans-Serif" font-size="32.00" fill="#29235c">user_id &#160;&#160;&#160;</text>
<text text-anchor="start" x="1803.41" y="-889.16" font-family="Helvetica,sans-Serif" font-style="italic" font-size="32.00" fill="#29235c">int</text>
<polygon fill="#e7e2dd" stroke="transparent" points="1438.19,-807.96 1438.19,-867.96 1848.19,-867.96 1848.19,-807.96 1438.19,-807.96"/>
<polygon fill="none" stroke="#29235c" points="1438.19,-807.96 1438.19,-867.96 1848.19,-867.96 1848.19,-807.96 1438.19,-807.96"/>
<text text-anchor="start" x="1448.81" y="-828.16" font-family="Helvetica,sans-Serif" font-size="32.00" fill="#29235c">payment_method &#160;&#160;&#160;</text>
<text text-anchor="start" x="1730.86" y="-829.16" font-family="Helvetica,sans-Serif" font-style="italic" font-size="32.00" fill="#29235c">varchar</text>
<polygon fill="none" stroke="#29235c" stroke-width="2" points="1437.19,-806.96 1437.19,-1048.96 1849.19,-1048.96 1849.19,-806.96 1437.19,-806.96"/>
</g>
<!-- User&#45;&gt;Payment -->
<!-- User&#45;&gt;Payment -->
<g id="edge4" class="edge">
<title>User:e&#45;&gt;Payment:w</title>
<path fill="none" stroke="#29235c" stroke-width="3" d="M526.75,-497.96C693.53,-497.96 560.48,-252.73 703.51,-166.96 819.94,-97.14 1212.35,-77.48 1314.45,-166.96 1360.3,-207.15 1340.78,-378.76 1350.45,-438.96 1382.81,-640.54 1234.63,-889.54 1427.15,-897.75"/>
<polygon fill="#29235c" stroke="#29235c" stroke-width="3" points="1427.12,-901.25 1437.19,-897.96 1427.27,-894.25 1427.12,-901.25"/>
<text text-anchor="middle" x="1443.41" y="-907.56" font-family="Helvetica,sans-Serif" font-size="32.00" fill="#29235c">*</text>
<text text-anchor="middle" x="517.86" y="-507.56" font-family="Helvetica,sans-Serif" font-size="32.00" fill="#29235c">1</text>
</g>
<!-- Referral -->
<g id="Referral" class="node">
<title>Referral</title>
<ellipse fill="none" stroke="black" stroke-width="0" cx="1643.19" cy="-214.96" rx="251.96" ry="214.92"/>
<polygon fill="#1d71b8" stroke="transparent" points="1467.19,-304.96 1467.19,-364.96 1819.19,-364.96 1819.19,-304.96 1467.19,-304.96"/>
<polygon fill="none" stroke="#29235c" points="1467.19,-304.96 1467.19,-364.96 1819.19,-364.96 1819.19,-304.96 1467.19,-304.96"/>
<text text-anchor="start" x="1524.06" y="-326.16" font-family="Helvetica,sans-Serif" font-weight="bold" font-size="32.00" fill="#ffffff"> &#160;&#160;&#160;&#160;&#160;&#160;Referral &#160;&#160;&#160;&#160;&#160;&#160;</text>
<polygon fill="#e7e2dd" stroke="transparent" points="1467.19,-244.96 1467.19,-304.96 1819.19,-304.96 1819.19,-244.96 1467.19,-244.96"/>
<polygon fill="none" stroke="#29235c" points="1467.19,-244.96 1467.19,-304.96 1819.19,-304.96 1819.19,-244.96 1467.19,-244.96"/>
<text text-anchor="start" x="1478.19" y="-266.16" font-family="Helvetica,sans-Serif" font-weight="bold" font-size="32.00" fill="#29235c">id</text>
<text text-anchor="start" x="1503.08" y="-266.16" font-family="Helvetica,sans-Serif" font-size="32.00" fill="#29235c"> &#160;&#160;&#160;</text>
<text text-anchor="start" x="1774.41" y="-266.16" font-family="Helvetica,sans-Serif" font-style="italic" font-size="32.00" fill="#29235c">int</text>
<polygon fill="#e7e2dd" stroke="transparent" points="1467.19,-184.96 1467.19,-244.96 1819.19,-244.96 1819.19,-184.96 1467.19,-184.96"/>
<polygon fill="none" stroke="#29235c" points="1467.19,-184.96 1467.19,-244.96 1819.19,-244.96 1819.19,-184.96 1467.19,-184.96"/>
<text text-anchor="start" x="1478.19" y="-205.16" font-family="Helvetica,sans-Serif" font-size="32.00" fill="#29235c">user_id &#160;&#160;&#160;</text>
<text text-anchor="start" x="1774.41" y="-206.16" font-family="Helvetica,sans-Serif" font-style="italic" font-size="32.00" fill="#29235c">int</text>
<polygon fill="#e7e2dd" stroke="transparent" points="1467.19,-124.96 1467.19,-184.96 1819.19,-184.96 1819.19,-124.96 1467.19,-124.96"/>
<polygon fill="none" stroke="#29235c" points="1467.19,-124.96 1467.19,-184.96 1819.19,-184.96 1819.19,-124.96 1467.19,-124.96"/>
<text text-anchor="start" x="1478.17" y="-145.16" font-family="Helvetica,sans-Serif" font-size="32.00" fill="#29235c">referral_code &#160;&#160;&#160;</text>
<text text-anchor="start" x="1701.86" y="-146.16" font-family="Helvetica,sans-Serif" font-style="italic" font-size="32.00" fill="#29235c">varchar</text>
<polygon fill="#e7e2dd" stroke="transparent" points="1467.19,-64.96 1467.19,-124.96 1819.19,-124.96 1819.19,-64.96 1467.19,-64.96"/>
<polygon fill="none" stroke="#29235c" points="1467.19,-64.96 1467.19,-124.96 1819.19,-124.96 1819.19,-64.96 1467.19,-64.96"/>
<text text-anchor="start" x="1478.19" y="-85.16" font-family="Helvetica,sans-Serif" font-size="32.00" fill="#29235c">credits &#160;&#160;&#160;</text>
<text text-anchor="start" x="1774.41" y="-86.16" font-family="Helvetica,sans-Serif" font-style="italic" font-size="32.00" fill="#29235c">int</text>
<polygon fill="none" stroke="#29235c" stroke-width="2" points="1466.19,-63.96 1466.19,-365.96 1820.19,-365.96 1820.19,-63.96 1466.19,-63.96"/>
</g>
<!-- User&#45;&gt;Referral -->
<!-- User&#45;&gt;Referral -->
<g id="edge6" class="edge">
<title>User:e&#45;&gt;Referral:w</title>
<path fill="none" stroke="#29235c" stroke-width="3" d="M526.75,-497.96C721.93,-497.96 540.07,-202.64 703.51,-95.96 930.89,52.45 1057.79,-7.33 1314.45,-95.96 1392.14,-122.79 1381.55,-207.6 1456.14,-214.51"/>
<polygon fill="#29235c" stroke="#29235c" stroke-width="3" points="1456.05,-218.01 1466.19,-214.96 1456.36,-211.02 1456.05,-218.01"/>
<text text-anchor="middle" x="1472.41" y="-186.16" font-family="Helvetica,sans-Serif" font-size="32.00" fill="#29235c">*</text>
<text text-anchor="middle" x="535.65" y="-469.16" font-family="Helvetica,sans-Serif" font-size="32.00" fill="#29235c">1</text>
</g>
<!-- Restaurant_and_Store -->
<g id="Restaurant_and_Store" class="node">
<title>Restaurant_and_Store</title>
<ellipse fill="none" stroke="black" stroke-width="0" cx="333.75" cy="-897.96" rx="333.51" ry="214.92"/>
<polygon fill="#1d71b8" stroke="transparent" points="99.75,-987.96 99.75,-1047.96 567.75,-1047.96 567.75,-987.96 99.75,-987.96"/>
<polygon fill="none" stroke="#29235c" points="99.75,-987.96 99.75,-1047.96 567.75,-1047.96 567.75,-987.96 99.75,-987.96"/>
<text text-anchor="start" x="110.56" y="-1009.16" font-family="Helvetica,sans-Serif" font-weight="bold" font-size="32.00" fill="#ffffff"> &#160;&#160;&#160;&#160;&#160;&#160;Restaurant_and_Store &#160;&#160;&#160;&#160;&#160;&#160;</text>
<polygon fill="#e7e2dd" stroke="transparent" points="99.75,-927.96 99.75,-987.96 567.75,-987.96 567.75,-927.96 99.75,-927.96"/>
<polygon fill="none" stroke="#29235c" points="99.75,-927.96 99.75,-987.96 567.75,-987.96 567.75,-927.96 99.75,-927.96"/>
<text text-anchor="start" x="110.75" y="-949.16" font-family="Helvetica,sans-Serif" font-weight="bold" font-size="32.00" fill="#29235c">id</text>
<text text-anchor="start" x="135.64" y="-949.16" font-family="Helvetica,sans-Serif" font-size="32.00" fill="#29235c"> &#160;&#160;&#160;</text>
<text text-anchor="start" x="522.97" y="-949.16" font-family="Helvetica,sans-Serif" font-style="italic" font-size="32.00" fill="#29235c">int</text>
<polygon fill="#e7e2dd" stroke="transparent" points="99.75,-867.96 99.75,-927.96 567.75,-927.96 567.75,-867.96 99.75,-867.96"/>
<polygon fill="none" stroke="#29235c" points="99.75,-867.96 99.75,-927.96 567.75,-927.96 567.75,-867.96 99.75,-867.96"/>
<text text-anchor="start" x="110.75" y="-888.16" font-family="Helvetica,sans-Serif" font-size="32.00" fill="#29235c">name &#160;&#160;&#160;</text>
<text text-anchor="start" x="450.08" y="-889.16" font-family="Helvetica,sans-Serif" font-style="italic" font-size="32.00" fill="#29235c">varchar</text>
<polygon fill="#e7e2dd" stroke="transparent" points="99.75,-807.96 99.75,-867.96 567.75,-867.96 567.75,-807.96 99.75,-807.96"/>
<polygon fill="none" stroke="#29235c" points="99.75,-807.96 99.75,-867.96 567.75,-867.96 567.75,-807.96 99.75,-807.96"/>
<text text-anchor="start" x="110.75" y="-828.16" font-family="Helvetica,sans-Serif" font-size="32.00" fill="#29235c">description &#160;&#160;&#160;</text>
<text text-anchor="start" x="505.18" y="-829.16" font-family="Helvetica,sans-Serif" font-style="italic" font-size="32.00" fill="#29235c">text</text>
<polygon fill="#e7e2dd" stroke="transparent" points="99.75,-747.96 99.75,-807.96 567.75,-807.96 567.75,-747.96 99.75,-747.96"/>
<polygon fill="none" stroke="#29235c" points="99.75,-747.96 99.75,-807.96 567.75,-807.96 567.75,-747.96 99.75,-747.96"/>
<text text-anchor="start" x="110.75" y="-768.16" font-family="Helvetica,sans-Serif" font-size="32.00" fill="#29235c">inventory &#160;&#160;&#160;</text>
<text text-anchor="start" x="505.18" y="-769.16" font-family="Helvetica,sans-Serif" font-style="italic" font-size="32.00" fill="#29235c">text</text>
<polygon fill="none" stroke="#29235c" stroke-width="2" points="98.75,-746.96 98.75,-1048.96 568.75,-1048.96 568.75,-746.96 98.75,-746.96"/>
</g>
<!-- Restaurant_and_Store&#45;&gt;Order -->
<!-- Restaurant_and_Store&#45;&gt;Order -->
<g id="edge8" class="edge">
<title>Restaurant_and_Store:e&#45;&gt;Order:w</title>
<path fill="none" stroke="#29235c" stroke-width="3" d="M568.75,-957.96C678.63,-957.96 680.55,-845.34 783.68,-838.3"/>
<polygon fill="#29235c" stroke="#29235c" stroke-width="3" points="784.1,-841.79 793.98,-837.96 783.87,-834.8 784.1,-841.79"/>
<text text-anchor="middle" x="800.2" y="-847.56" font-family="Helvetica,sans-Serif" font-size="32.00" fill="#29235c">*</text>
<text text-anchor="middle" x="559.86" y="-967.56" font-family="Helvetica,sans-Serif" font-size="32.00" fill="#29235c">1</text>
</g>
<!-- Order&#45;&gt;Payment -->
<!-- Order&#45;&gt;Payment -->
<g id="edge12" class="edge">
<title>Order:e&#45;&gt;Payment:w</title>
<path fill="none" stroke="#29235c" stroke-width="3" d="M1223.98,-717.96C1363.18,-717.96 1297.91,-946.38 1427.12,-957.54"/>
<polygon fill="#29235c" stroke="#29235c" stroke-width="3" points="1427.05,-961.04 1437.19,-957.96 1427.35,-954.04 1427.05,-961.04"/>
<text text-anchor="middle" x="1443.41" y="-967.56" font-family="Helvetica,sans-Serif" font-size="32.00" fill="#29235c">*</text>
<text text-anchor="middle" x="1232.87" y="-727.56" font-family="Helvetica,sans-Serif" font-size="32.00" fill="#29235c">1</text>
</g>
<!-- Tracking -->
<g id="Tracking" class="node">
<title>Tracking</title>
<ellipse fill="none" stroke="black" stroke-width="0" cx="1643.19" cy="-1332.96" rx="280.94" ry="214.92"/>
<polygon fill="#1d71b8" stroke="transparent" points="1447.19,-1422.96 1447.19,-1482.96 1840.19,-1482.96 1840.19,-1422.96 1447.19,-1422.96"/>
<polygon fill="none" stroke="#29235c" points="1447.19,-1422.96 1447.19,-1482.96 1840.19,-1482.96 1840.19,-1422.96 1447.19,-1422.96"/>
<text text-anchor="start" x="1520.11" y="-1444.16" font-family="Helvetica,sans-Serif" font-weight="bold" font-size="32.00" fill="#ffffff"> &#160;&#160;&#160;&#160;&#160;&#160;Tracking &#160;&#160;&#160;&#160;&#160;&#160;</text>
<polygon fill="#e7e2dd" stroke="transparent" points="1447.19,-1362.96 1447.19,-1422.96 1840.19,-1422.96 1840.19,-1362.96 1447.19,-1362.96"/>
<polygon fill="none" stroke="#29235c" points="1447.19,-1362.96 1447.19,-1422.96 1840.19,-1422.96 1840.19,-1362.96 1447.19,-1362.96"/>
<text text-anchor="start" x="1458.19" y="-1384.16" font-family="Helvetica,sans-Serif" font-weight="bold" font-size="32.00" fill="#29235c">id</text>
<text text-anchor="start" x="1483.08" y="-1384.16" font-family="Helvetica,sans-Serif" font-size="32.00" fill="#29235c"> &#160;&#160;&#160;</text>
<text text-anchor="start" x="1795.41" y="-1384.16" font-family="Helvetica,sans-Serif" font-style="italic" font-size="32.00" fill="#29235c">int</text>
<polygon fill="#e7e2dd" stroke="transparent" points="1447.19,-1302.96 1447.19,-1362.96 1840.19,-1362.96 1840.19,-1302.96 1447.19,-1302.96"/>
<polygon fill="none" stroke="#29235c" points="1447.19,-1302.96 1447.19,-1362.96 1840.19,-1362.96 1840.19,-1302.96 1447.19,-1302.96"/>
<text text-anchor="start" x="1458.19" y="-1323.16" font-family="Helvetica,sans-Serif" font-size="32.00" fill="#29235c">order_id &#160;&#160;&#160;</text>
<text text-anchor="start" x="1795.41" y="-1324.16" font-family="Helvetica,sans-Serif" font-style="italic" font-size="32.00" fill="#29235c">int</text>
<polygon fill="#e7e2dd" stroke="transparent" points="1447.19,-1242.96 1447.19,-1302.96 1840.19,-1302.96 1840.19,-1242.96 1447.19,-1242.96"/>
<polygon fill="none" stroke="#29235c" points="1447.19,-1242.96 1447.19,-1302.96 1840.19,-1302.96 1840.19,-1242.96 1447.19,-1242.96"/>
<text text-anchor="start" x="1458.19" y="-1263.16" font-family="Helvetica,sans-Serif" font-size="32.00" fill="#29235c">status &#160;&#160;&#160;</text>
<text text-anchor="start" x="1722.52" y="-1264.16" font-family="Helvetica,sans-Serif" font-style="italic" font-size="32.00" fill="#29235c">varchar</text>
<polygon fill="#e7e2dd" stroke="transparent" points="1447.19,-1182.96 1447.19,-1242.96 1840.19,-1242.96 1840.19,-1182.96 1447.19,-1182.96"/>
<polygon fill="none" stroke="#29235c" points="1447.19,-1182.96 1447.19,-1242.96 1840.19,-1242.96 1840.19,-1182.96 1447.19,-1182.96"/>
<text text-anchor="start" x="1458.18" y="-1203.16" font-family="Helvetica,sans-Serif" font-size="32.00" fill="#29235c">delivery_time &#160;&#160;&#160;</text>
<text text-anchor="start" x="1681.91" y="-1204.16" font-family="Helvetica,sans-Serif" font-style="italic" font-size="32.00" fill="#29235c">timestamp</text>
<polygon fill="none" stroke="#29235c" stroke-width="2" points="1445.69,-1181.96 1445.69,-1483.96 1840.69,-1483.96 1840.69,-1181.96 1445.69,-1181.96"/>
</g>
<!-- Order&#45;&gt;Tracking -->
<!-- Order&#45;&gt;Tracking -->
<g id="edge10" class="edge">
<title>Order:e&#45;&gt;Tracking:w</title>
<path fill="none" stroke="#29235c" stroke-width="3" d="M1223.98,-957.96C1414.21,-957.96 1258.31,-1319.53 1436.04,-1332.6"/>
<polygon fill="#29235c" stroke="#29235c" stroke-width="3" points="1436.07,-1336.1 1446.19,-1332.96 1436.32,-1329.11 1436.07,-1336.1"/>
<text text-anchor="middle" x="1452.41" y="-1342.56" font-family="Helvetica,sans-Serif" font-size="32.00" fill="#29235c">*</text>
<text text-anchor="middle" x="1232.87" y="-967.56" font-family="Helvetica,sans-Serif" font-size="32.00" fill="#29235c">1</text>
</g>
<!-- Order&#45;&gt;Referral -->
<!-- Order&#45;&gt;Referral -->
<g id="edge14" class="edge">
<title>Order:e&#45;&gt;Referral:w</title>
<path fill="none" stroke="#29235c" stroke-width="3" d="M1223.98,-417.96C1345.45,-417.96 1341.52,-282.95 1455.88,-275.3"/>
<polygon fill="#29235c" stroke="#29235c" stroke-width="3" points="1456.31,-278.79 1466.19,-274.96 1456.08,-271.79 1456.31,-278.79"/>
<text text-anchor="middle" x="1472.41" y="-246.16" font-family="Helvetica,sans-Serif" font-size="32.00" fill="#29235c">*</text>
<text text-anchor="middle" x="1232.87" y="-389.16" font-family="Helvetica,sans-Serif" font-size="32.00" fill="#29235c">1</text>
</g>
<!-- Discounts_and_Offers -->
<g id="Discounts_and_Offers" class="node">
<title>Discounts_and_Offers</title>
<ellipse fill="none" stroke="black" stroke-width="0" cx="333.75" cy="-1345.96" rx="330.44" ry="214.92"/>
<polygon fill="#1d71b8" stroke="transparent" points="102.75,-1435.96 102.75,-1495.96 565.75,-1495.96 565.75,-1435.96 102.75,-1435.96"/>
<polygon fill="none" stroke="#29235c" points="102.75,-1435.96 102.75,-1495.96 565.75,-1495.96 565.75,-1435.96 102.75,-1435.96"/>
<text text-anchor="start" x="113.74" y="-1457.16" font-family="Helvetica,sans-Serif" font-weight="bold" font-size="32.00" fill="#ffffff"> &#160;&#160;&#160;&#160;&#160;&#160;Discounts_and_Offers &#160;&#160;&#160;&#160;&#160;&#160;</text>
<polygon fill="#e7e2dd" stroke="transparent" points="102.75,-1375.96 102.75,-1435.96 565.75,-1435.96 565.75,-1375.96 102.75,-1375.96"/>
<polygon fill="none" stroke="#29235c" points="102.75,-1375.96 102.75,-1435.96 565.75,-1435.96 565.75,-1375.96 102.75,-1375.96"/>
<text text-anchor="start" x="113.75" y="-1397.16" font-family="Helvetica,sans-Serif" font-weight="bold" font-size="32.00" fill="#29235c">id</text>
<text text-anchor="start" x="138.64" y="-1397.16" font-family="Helvetica,sans-Serif" font-size="32.00" fill="#29235c"> &#160;&#160;&#160;</text>
<text text-anchor="start" x="520.97" y="-1397.16" font-family="Helvetica,sans-Serif" font-style="italic" font-size="32.00" fill="#29235c">int</text>
<polygon fill="#e7e2dd" stroke="transparent" points="102.75,-1315.96 102.75,-1375.96 565.75,-1375.96 565.75,-1315.96 102.75,-1315.96"/>
<polygon fill="none" stroke="#29235c" points="102.75,-1315.96 102.75,-1375.96 565.75,-1375.96 565.75,-1315.96 102.75,-1315.96"/>
<text text-anchor="start" x="113.75" y="-1336.16" font-family="Helvetica,sans-Serif" font-size="32.00" fill="#29235c">description &#160;&#160;&#160;</text>
<text text-anchor="start" x="503.18" y="-1337.16" font-family="Helvetica,sans-Serif" font-style="italic" font-size="32.00" fill="#29235c">text</text>
<polygon fill="#e7e2dd" stroke="transparent" points="102.75,-1255.96 102.75,-1315.96 565.75,-1315.96 565.75,-1255.96 102.75,-1255.96"/>
<polygon fill="none" stroke="#29235c" points="102.75,-1255.96 102.75,-1315.96 565.75,-1315.96 565.75,-1255.96 102.75,-1255.96"/>
<text text-anchor="start" x="113.75" y="-1276.16" font-family="Helvetica,sans-Serif" font-size="32.00" fill="#29235c">offer_code &#160;&#160;&#160;</text>
<text text-anchor="start" x="448.08" y="-1277.16" font-family="Helvetica,sans-Serif" font-style="italic" font-size="32.00" fill="#29235c">varchar</text>
<polygon fill="#e7e2dd" stroke="transparent" points="102.75,-1195.96 102.75,-1255.96 565.75,-1255.96 565.75,-1195.96 102.75,-1195.96"/>
<polygon fill="none" stroke="#29235c" points="102.75,-1195.96 102.75,-1255.96 565.75,-1255.96 565.75,-1195.96 102.75,-1195.96"/>
<text text-anchor="start" x="113.75" y="-1216.16" font-family="Helvetica,sans-Serif" font-size="32.00" fill="#29235c">expiry_date &#160;&#160;&#160;</text>
<text text-anchor="start" x="492.5" y="-1217.16" font-family="Helvetica,sans-Serif" font-style="italic" font-size="32.00" fill="#29235c">date</text>
<polygon fill="none" stroke="#29235c" stroke-width="2" points="101.25,-1194.96 101.25,-1496.96 566.25,-1496.96 566.25,-1194.96 101.25,-1194.96"/>
</g>
</g>
</svg>
