<?xml version="1.0" encoding="UTF-8" standalone="no"?>
<!DOCTYPE svg PUBLIC "-//W3C//DTD SVG 1.1//EN"
 "http://www.w3.org/Graphics/SVG/1.1/DTD/svg11.dtd">
<!-- Generated by graphviz version 2.47.0 (20210316.0004)
 -->
<!-- Title: dbml Pages: 1 -->
<svg width="1571pt" height="2131pt"
 viewBox="0.00 0.00 1570.58 2131.49" xmlns="http://www.w3.org/2000/svg" xmlns:xlink="http://www.w3.org/1999/xlink">
<g id="graph0" class="graph" transform="scale(1 1) rotate(0) translate(4 2127.49)">
<title>dbml</title>
<!-- User -->
<g id="User" class="node">
<title>User</title>
<ellipse fill="none" stroke="black" stroke-width="0" cx="1361.06" cy="-722.53" rx="198.89" ry="172.57"/>
<polygon fill="#1d71b8" stroke="transparent" points="1223.06,-782.53 1223.06,-842.53 1500.06,-842.53 1500.06,-782.53 1223.06,-782.53"/>
<polygon fill="none" stroke="#29235c" points="1223.06,-782.53 1223.06,-842.53 1500.06,-842.53 1500.06,-782.53 1223.06,-782.53"/>
<text text-anchor="start" x="1265.53" y="-803.73" font-family="Helvetica,sans-Serif" font-weight="bold" font-size="32.00" fill="#ffffff"> &#160;&#160;&#160;&#160;&#160;&#160;User &#160;&#160;&#160;&#160;&#160;&#160;</text>
<polygon fill="#e7e2dd" stroke="transparent" points="1223.06,-722.53 1223.06,-782.53 1500.06,-782.53 1500.06,-722.53 1223.06,-722.53"/>
<polygon fill="none" stroke="#29235c" points="1223.06,-722.53 1223.06,-782.53 1500.06,-782.53 1500.06,-722.53 1223.06,-722.53"/>
<text text-anchor="start" x="1234.06" y="-743.73" font-family="Helvetica,sans-Serif" font-weight="bold" font-size="32.00" fill="#29235c">userID</text>
<text text-anchor="start" x="1328.28" y="-743.73" font-family="Helvetica,sans-Serif" font-size="32.00" fill="#29235c"> &#160;&#160;&#160;</text>
<text text-anchor="start" x="1410.83" y="-743.73" font-family="Helvetica,sans-Serif" font-style="italic" font-size="32.00" fill="#29235c">string</text>
<polygon fill="#e7e2dd" stroke="transparent" points="1223.06,-662.53 1223.06,-722.53 1500.06,-722.53 1500.06,-662.53 1223.06,-662.53"/>
<polygon fill="none" stroke="#29235c" points="1223.06,-662.53 1223.06,-722.53 1500.06,-722.53 1500.06,-662.53 1223.06,-662.53"/>
<text text-anchor="start" x="1233.65" y="-682.73" font-family="Helvetica,sans-Serif" font-size="32.00" fill="#29235c">username &#160;&#160;&#160;</text>
<text text-anchor="start" x="1410.94" y="-683.73" font-family="Helvetica,sans-Serif" font-style="italic" font-size="32.00" fill="#29235c">string</text>
<polygon fill="#e7e2dd" stroke="transparent" points="1223.06,-602.53 1223.06,-662.53 1500.06,-662.53 1500.06,-602.53 1223.06,-602.53"/>
<polygon fill="none" stroke="#29235c" points="1223.06,-602.53 1223.06,-662.53 1500.06,-662.53 1500.06,-602.53 1223.06,-602.53"/>
<text text-anchor="start" x="1234.06" y="-622.73" font-family="Helvetica,sans-Serif" font-size="32.00" fill="#29235c">email &#160;&#160;&#160;</text>
<text text-anchor="start" x="1410.83" y="-623.73" font-family="Helvetica,sans-Serif" font-style="italic" font-size="32.00" fill="#29235c">string</text>
<polygon fill="none" stroke="#29235c" stroke-width="2" points="1221.56,-601.53 1221.56,-843.53 1500.56,-843.53 1500.56,-601.53 1221.56,-601.53"/>
</g>
<!-- Order -->
<g id="Order" class="node">
<title>Order</title>
<ellipse fill="none" stroke="black" stroke-width="0" cx="839.98" cy="-1430.53" rx="241.66" ry="257.27"/>
<polygon fill="#1d71b8" stroke="transparent" points="670.98,-1550.53 670.98,-1610.53 1008.98,-1610.53 1008.98,-1550.53 670.98,-1550.53"/>
<polygon fill="none" stroke="#29235c" points="670.98,-1550.53 670.98,-1610.53 1008.98,-1610.53 1008.98,-1550.53 670.98,-1550.53"/>
<text text-anchor="start" x="736.84" y="-1571.73" font-family="Helvetica,sans-Serif" font-weight="bold" font-size="32.00" fill="#ffffff"> &#160;&#160;&#160;&#160;&#160;&#160;Order &#160;&#160;&#160;&#160;&#160;&#160;</text>
<polygon fill="#e7e2dd" stroke="transparent" points="670.98,-1490.53 670.98,-1550.53 1008.98,-1550.53 1008.98,-1490.53 670.98,-1490.53"/>
<polygon fill="none" stroke="#29235c" points="670.98,-1490.53 670.98,-1550.53 1008.98,-1550.53 1008.98,-1490.53 670.98,-1490.53"/>
<text text-anchor="start" x="681.98" y="-1511.73" font-family="Helvetica,sans-Serif" font-weight="bold" font-size="32.00" fill="#29235c">orderID</text>
<text text-anchor="start" x="788.65" y="-1511.73" font-family="Helvetica,sans-Serif" font-size="32.00" fill="#29235c"> &#160;&#160;&#160;</text>
<text text-anchor="start" x="919.76" y="-1511.73" font-family="Helvetica,sans-Serif" font-style="italic" font-size="32.00" fill="#29235c">string</text>
<polygon fill="#e7e2dd" stroke="transparent" points="670.98,-1430.53 670.98,-1490.53 1008.98,-1490.53 1008.98,-1430.53 670.98,-1430.53"/>
<polygon fill="none" stroke="#29235c" points="670.98,-1430.53 670.98,-1490.53 1008.98,-1490.53 1008.98,-1430.53 670.98,-1430.53"/>
<text text-anchor="start" x="681.84" y="-1450.73" font-family="Helvetica,sans-Serif" font-size="32.00" fill="#29235c">totalAmount &#160;&#160;&#160;</text>
<text text-anchor="start" x="887.87" y="-1451.73" font-family="Helvetica,sans-Serif" font-style="italic" font-size="32.00" fill="#29235c">decimal</text>
<polygon fill="#e7e2dd" stroke="transparent" points="670.98,-1370.53 670.98,-1430.53 1008.98,-1430.53 1008.98,-1370.53 670.98,-1370.53"/>
<polygon fill="none" stroke="#29235c" points="670.98,-1370.53 670.98,-1430.53 1008.98,-1430.53 1008.98,-1370.53 670.98,-1370.53"/>
<text text-anchor="start" x="681.98" y="-1390.73" font-family="Helvetica,sans-Serif" font-size="32.00" fill="#29235c">status &#160;&#160;&#160;</text>
<text text-anchor="start" x="919.76" y="-1391.73" font-family="Helvetica,sans-Serif" font-style="italic" font-size="32.00" fill="#29235c">string</text>
<polygon fill="#e7e2dd" stroke="transparent" points="670.98,-1310.53 670.98,-1370.53 1008.98,-1370.53 1008.98,-1310.53 670.98,-1310.53"/>
<polygon fill="none" stroke="#29235c" points="670.98,-1310.53 670.98,-1370.53 1008.98,-1370.53 1008.98,-1310.53 670.98,-1310.53"/>
<text text-anchor="start" x="681.98" y="-1330.73" font-family="Helvetica,sans-Serif" font-size="32.00" fill="#29235c">userID &#160;&#160;&#160;</text>
<text text-anchor="start" x="919.76" y="-1331.73" font-family="Helvetica,sans-Serif" font-style="italic" font-size="32.00" fill="#29235c">string</text>
<polygon fill="#e7e2dd" stroke="transparent" points="670.98,-1250.53 670.98,-1310.53 1008.98,-1310.53 1008.98,-1250.53 670.98,-1250.53"/>
<polygon fill="none" stroke="#29235c" points="670.98,-1250.53 670.98,-1310.53 1008.98,-1310.53 1008.98,-1250.53 670.98,-1250.53"/>
<text text-anchor="start" x="681.98" y="-1270.73" font-family="Helvetica,sans-Serif" font-size="32.00" fill="#29235c">addressID &#160;&#160;&#160;</text>
<text text-anchor="start" x="919.76" y="-1271.73" font-family="Helvetica,sans-Serif" font-style="italic" font-size="32.00" fill="#29235c">string</text>
<polygon fill="none" stroke="#29235c" stroke-width="2" points="669.98,-1249.53 669.98,-1611.53 1009.98,-1611.53 1009.98,-1249.53 669.98,-1249.53"/>
</g>
<!-- Order&#45;&gt;User -->
<!-- Order&#45;&gt;User -->
<g id="edge2" class="edge">
<title>Order:e&#45;&gt;User:w</title>
<path fill="none" stroke="#29235c" stroke-width="3" d="M1009.98,-1340.53C1103.07,-1340.53 1086.95,-1250.13 1123.53,-1164.53 1196.14,-994.62 1039.78,-761.38 1211.94,-752.78"/>
<polygon fill="#29235c" stroke="#29235c" stroke-width="3" points="1212.14,-756.27 1222.06,-752.53 1211.97,-749.28 1212.14,-756.27"/>
<text text-anchor="middle" x="1213.16" y="-762.13" font-family="Helvetica,sans-Serif" font-size="32.00" fill="#29235c">1</text>
<text text-anchor="middle" x="1016.2" y="-1350.13" font-family="Helvetica,sans-Serif" font-size="32.00" fill="#29235c">*</text>
</g>
<!-- Address -->
<g id="Address" class="node">
<title>Address</title>
<ellipse fill="none" stroke="black" stroke-width="0" cx="1361.06" cy="-1460.53" rx="201.55" ry="214.92"/>
<polygon fill="#1d71b8" stroke="transparent" points="1221.06,-1550.53 1221.06,-1610.53 1502.06,-1610.53 1502.06,-1550.53 1221.06,-1550.53"/>
<polygon fill="none" stroke="#29235c" points="1221.06,-1550.53 1221.06,-1610.53 1502.06,-1610.53 1502.06,-1550.53 1221.06,-1550.53"/>
<text text-anchor="start" x="1240.63" y="-1571.73" font-family="Helvetica,sans-Serif" font-weight="bold" font-size="32.00" fill="#ffffff"> &#160;&#160;&#160;&#160;&#160;&#160;Address &#160;&#160;&#160;&#160;&#160;&#160;</text>
<polygon fill="#e7e2dd" stroke="transparent" points="1221.06,-1490.53 1221.06,-1550.53 1502.06,-1550.53 1502.06,-1490.53 1221.06,-1490.53"/>
<polygon fill="none" stroke="#29235c" points="1221.06,-1490.53 1221.06,-1550.53 1502.06,-1550.53 1502.06,-1490.53 1221.06,-1490.53"/>
<text text-anchor="start" x="1231.87" y="-1511.73" font-family="Helvetica,sans-Serif" font-weight="bold" font-size="32.00" fill="#29235c">addressID</text>
<text text-anchor="start" x="1377.67" y="-1511.73" font-family="Helvetica,sans-Serif" font-size="32.00" fill="#29235c"> &#160;&#160;&#160;</text>
<text text-anchor="start" x="1412.94" y="-1511.73" font-family="Helvetica,sans-Serif" font-style="italic" font-size="32.00" fill="#29235c">string</text>
<polygon fill="#e7e2dd" stroke="transparent" points="1221.06,-1430.53 1221.06,-1490.53 1502.06,-1490.53 1502.06,-1430.53 1221.06,-1430.53"/>
<polygon fill="none" stroke="#29235c" points="1221.06,-1430.53 1221.06,-1490.53 1502.06,-1490.53 1502.06,-1430.53 1221.06,-1430.53"/>
<text text-anchor="start" x="1232.06" y="-1450.73" font-family="Helvetica,sans-Serif" font-size="32.00" fill="#29235c">street &#160;&#160;&#160;</text>
<text text-anchor="start" x="1412.83" y="-1451.73" font-family="Helvetica,sans-Serif" font-style="italic" font-size="32.00" fill="#29235c">string</text>
<polygon fill="#e7e2dd" stroke="transparent" points="1221.06,-1370.53 1221.06,-1430.53 1502.06,-1430.53 1502.06,-1370.53 1221.06,-1370.53"/>
<polygon fill="none" stroke="#29235c" points="1221.06,-1370.53 1221.06,-1430.53 1502.06,-1430.53 1502.06,-1370.53 1221.06,-1370.53"/>
<text text-anchor="start" x="1232.06" y="-1390.73" font-family="Helvetica,sans-Serif" font-size="32.00" fill="#29235c">city &#160;&#160;&#160;</text>
<text text-anchor="start" x="1412.83" y="-1391.73" font-family="Helvetica,sans-Serif" font-style="italic" font-size="32.00" fill="#29235c">string</text>
<polygon fill="#e7e2dd" stroke="transparent" points="1221.06,-1310.53 1221.06,-1370.53 1502.06,-1370.53 1502.06,-1310.53 1221.06,-1310.53"/>
<polygon fill="none" stroke="#29235c" points="1221.06,-1310.53 1221.06,-1370.53 1502.06,-1370.53 1502.06,-1310.53 1221.06,-1310.53"/>
<text text-anchor="start" x="1232.06" y="-1330.73" font-family="Helvetica,sans-Serif" font-size="32.00" fill="#29235c">zipCode &#160;&#160;&#160;</text>
<text text-anchor="start" x="1412.83" y="-1331.73" font-family="Helvetica,sans-Serif" font-style="italic" font-size="32.00" fill="#29235c">string</text>
<polygon fill="none" stroke="#29235c" stroke-width="2" points="1219.56,-1309.53 1219.56,-1611.53 1502.56,-1611.53 1502.56,-1309.53 1219.56,-1309.53"/>
</g>
<!-- Order&#45;&gt;Address -->
<!-- Order&#45;&gt;Address -->
<g id="edge4" class="edge">
<title>Order:e&#45;&gt;Address:w</title>
<path fill="none" stroke="#29235c" stroke-width="3" d="M1009.98,-1280.53C1148.28,-1280.53 1081.76,-1508.96 1210.05,-1520.11"/>
<polygon fill="#29235c" stroke="#29235c" stroke-width="3" points="1209.92,-1523.61 1220.06,-1520.53 1210.21,-1516.62 1209.92,-1523.61"/>
<text text-anchor="middle" x="1211.16" y="-1530.13" font-family="Helvetica,sans-Serif" font-size="32.00" fill="#29235c">1</text>
<text text-anchor="middle" x="1016.2" y="-1290.13" font-family="Helvetica,sans-Serif" font-size="32.00" fill="#29235c">*</text>
</g>
<!-- Promotion -->
<g id="Promotion" class="node">
<title>Promotion</title>
<ellipse fill="none" stroke="black" stroke-width="0" cx="260.22" cy="-1908.53" rx="221.15" ry="214.92"/>
<polygon fill="#1d71b8" stroke="transparent" points="106.22,-1998.53 106.22,-2058.53 415.22,-2058.53 415.22,-1998.53 106.22,-1998.53"/>
<polygon fill="none" stroke="#29235c" points="106.22,-1998.53 106.22,-2058.53 415.22,-2058.53 415.22,-1998.53 106.22,-1998.53"/>
<text text-anchor="start" x="125.57" y="-2019.73" font-family="Helvetica,sans-Serif" font-weight="bold" font-size="32.00" fill="#ffffff"> &#160;&#160;&#160;&#160;&#160;&#160;Promotion &#160;&#160;&#160;&#160;&#160;&#160;</text>
<polygon fill="#e7e2dd" stroke="transparent" points="106.22,-1938.53 106.22,-1998.53 415.22,-1998.53 415.22,-1938.53 106.22,-1938.53"/>
<polygon fill="none" stroke="#29235c" points="106.22,-1938.53 106.22,-1998.53 415.22,-1998.53 415.22,-1938.53 106.22,-1938.53"/>
<text text-anchor="start" x="116.81" y="-1959.73" font-family="Helvetica,sans-Serif" font-weight="bold" font-size="32.00" fill="#29235c">promotionID</text>
<text text-anchor="start" x="291.05" y="-1959.73" font-family="Helvetica,sans-Serif" font-size="32.00" fill="#29235c"> &#160;&#160;&#160;</text>
<text text-anchor="start" x="326.1" y="-1959.73" font-family="Helvetica,sans-Serif" font-style="italic" font-size="32.00" fill="#29235c">string</text>
<polygon fill="#e7e2dd" stroke="transparent" points="106.22,-1878.53 106.22,-1938.53 415.22,-1938.53 415.22,-1878.53 106.22,-1878.53"/>
<polygon fill="none" stroke="#29235c" points="106.22,-1878.53 106.22,-1938.53 415.22,-1938.53 415.22,-1878.53 106.22,-1878.53"/>
<text text-anchor="start" x="117.22" y="-1898.73" font-family="Helvetica,sans-Serif" font-size="32.00" fill="#29235c">title &#160;&#160;&#160;</text>
<text text-anchor="start" x="325.99" y="-1899.73" font-family="Helvetica,sans-Serif" font-style="italic" font-size="32.00" fill="#29235c">string</text>
<polygon fill="#e7e2dd" stroke="transparent" points="106.22,-1818.53 106.22,-1878.53 415.22,-1878.53 415.22,-1818.53 106.22,-1818.53"/>
<polygon fill="none" stroke="#29235c" points="106.22,-1818.53 106.22,-1878.53 415.22,-1878.53 415.22,-1818.53 106.22,-1818.53"/>
<text text-anchor="start" x="117.22" y="-1838.73" font-family="Helvetica,sans-Serif" font-size="32.00" fill="#29235c">description &#160;&#160;&#160;</text>
<text text-anchor="start" x="325.99" y="-1839.73" font-family="Helvetica,sans-Serif" font-style="italic" font-size="32.00" fill="#29235c">string</text>
<polygon fill="#e7e2dd" stroke="transparent" points="106.22,-1758.53 106.22,-1818.53 415.22,-1818.53 415.22,-1758.53 106.22,-1758.53"/>
<polygon fill="none" stroke="#29235c" points="106.22,-1758.53 106.22,-1818.53 415.22,-1818.53 415.22,-1758.53 106.22,-1758.53"/>
<text text-anchor="start" x="117.22" y="-1778.73" font-family="Helvetica,sans-Serif" font-size="32.00" fill="#29235c">discount &#160;&#160;&#160;</text>
<text text-anchor="start" x="293.99" y="-1779.73" font-family="Helvetica,sans-Serif" font-style="italic" font-size="32.00" fill="#29235c">decimal</text>
<polygon fill="none" stroke="#29235c" stroke-width="2" points="104.72,-1757.53 104.72,-2059.53 415.72,-2059.53 415.72,-1757.53 104.72,-1757.53"/>
</g>
<!-- CustomerSupport -->
<g id="CustomerSupport" class="node">
<title>CustomerSupport</title>
<ellipse fill="none" stroke="black" stroke-width="0" cx="839.98" cy="-940.53" rx="283.6" ry="214.92"/>
<polygon fill="#1d71b8" stroke="transparent" points="641.98,-1030.53 641.98,-1090.53 1038.98,-1090.53 1038.98,-1030.53 641.98,-1030.53"/>
<polygon fill="none" stroke="#29235c" points="641.98,-1030.53 641.98,-1090.53 1038.98,-1090.53 1038.98,-1030.53 641.98,-1030.53"/>
<text text-anchor="start" x="652.88" y="-1051.73" font-family="Helvetica,sans-Serif" font-weight="bold" font-size="32.00" fill="#ffffff"> &#160;&#160;&#160;&#160;&#160;&#160;CustomerSupport &#160;&#160;&#160;&#160;&#160;&#160;</text>
<polygon fill="#e7e2dd" stroke="transparent" points="641.98,-970.53 641.98,-1030.53 1038.98,-1030.53 1038.98,-970.53 641.98,-970.53"/>
<polygon fill="none" stroke="#29235c" points="641.98,-970.53 641.98,-1030.53 1038.98,-1030.53 1038.98,-970.53 641.98,-970.53"/>
<text text-anchor="start" x="652.98" y="-991.73" font-family="Helvetica,sans-Serif" font-weight="bold" font-size="32.00" fill="#29235c">supportID</text>
<text text-anchor="start" x="791.67" y="-991.73" font-family="Helvetica,sans-Serif" font-size="32.00" fill="#29235c"> &#160;&#160;&#160;</text>
<text text-anchor="start" x="949.76" y="-991.73" font-family="Helvetica,sans-Serif" font-style="italic" font-size="32.00" fill="#29235c">string</text>
<polygon fill="#e7e2dd" stroke="transparent" points="641.98,-910.53 641.98,-970.53 1038.98,-970.53 1038.98,-910.53 641.98,-910.53"/>
<polygon fill="none" stroke="#29235c" points="641.98,-910.53 641.98,-970.53 1038.98,-970.53 1038.98,-910.53 641.98,-910.53"/>
<text text-anchor="start" x="652.98" y="-930.73" font-family="Helvetica,sans-Serif" font-size="32.00" fill="#29235c">userID &#160;&#160;&#160;</text>
<text text-anchor="start" x="949.76" y="-931.73" font-family="Helvetica,sans-Serif" font-style="italic" font-size="32.00" fill="#29235c">string</text>
<polygon fill="#e7e2dd" stroke="transparent" points="641.98,-850.53 641.98,-910.53 1038.98,-910.53 1038.98,-850.53 641.98,-850.53"/>
<polygon fill="none" stroke="#29235c" points="641.98,-850.53 641.98,-910.53 1038.98,-910.53 1038.98,-850.53 641.98,-850.53"/>
<text text-anchor="start" x="652.98" y="-870.73" font-family="Helvetica,sans-Serif" font-size="32.00" fill="#29235c">issueDescription &#160;&#160;&#160;</text>
<text text-anchor="start" x="949.76" y="-871.73" font-family="Helvetica,sans-Serif" font-style="italic" font-size="32.00" fill="#29235c">string</text>
<polygon fill="#e7e2dd" stroke="transparent" points="641.98,-790.53 641.98,-850.53 1038.98,-850.53 1038.98,-790.53 641.98,-790.53"/>
<polygon fill="none" stroke="#29235c" points="641.98,-790.53 641.98,-850.53 1038.98,-850.53 1038.98,-790.53 641.98,-790.53"/>
<text text-anchor="start" x="652.98" y="-810.73" font-family="Helvetica,sans-Serif" font-size="32.00" fill="#29235c">supportStatus &#160;&#160;&#160;</text>
<text text-anchor="start" x="949.76" y="-811.73" font-family="Helvetica,sans-Serif" font-style="italic" font-size="32.00" fill="#29235c">string</text>
<polygon fill="none" stroke="#29235c" stroke-width="2" points="640.48,-789.53 640.48,-1091.53 1039.48,-1091.53 1039.48,-789.53 640.48,-789.53"/>
</g>
<!-- CustomerSupport&#45;&gt;User -->
<!-- CustomerSupport&#45;&gt;User -->
<g id="edge6" class="edge">
<title>CustomerSupport:e&#45;&gt;User:w</title>
<path fill="none" stroke="#29235c" stroke-width="3" d="M1039.98,-940.53C1152.78,-940.53 1108.65,-763.74 1211.94,-753.04"/>
<polygon fill="#29235c" stroke="#29235c" stroke-width="3" points="1212.24,-756.53 1222.06,-752.53 1211.89,-749.54 1212.24,-756.53"/>
<text text-anchor="middle" x="1230.95" y="-762.13" font-family="Helvetica,sans-Serif" font-size="32.00" fill="#29235c">1</text>
<text text-anchor="middle" x="1046.2" y="-950.13" font-family="Helvetica,sans-Serif" font-size="32.00" fill="#29235c">*</text>
</g>
<!-- Payment -->
<g id="Payment" class="node">
<title>Payment</title>
<ellipse fill="none" stroke="black" stroke-width="0" cx="260.22" cy="-1460.53" rx="260.43" ry="214.92"/>
<polygon fill="#1d71b8" stroke="transparent" points="78.22,-1550.53 78.22,-1610.53 442.22,-1610.53 442.22,-1550.53 78.22,-1550.53"/>
<polygon fill="none" stroke="#29235c" points="78.22,-1550.53 78.22,-1610.53 442.22,-1610.53 442.22,-1550.53 78.22,-1550.53"/>
<text text-anchor="start" x="134.84" y="-1571.73" font-family="Helvetica,sans-Serif" font-weight="bold" font-size="32.00" fill="#ffffff"> &#160;&#160;&#160;&#160;&#160;&#160;Payment &#160;&#160;&#160;&#160;&#160;&#160;</text>
<polygon fill="#e7e2dd" stroke="transparent" points="78.22,-1490.53 78.22,-1550.53 442.22,-1550.53 442.22,-1490.53 78.22,-1490.53"/>
<polygon fill="none" stroke="#29235c" points="78.22,-1490.53 78.22,-1550.53 442.22,-1550.53 442.22,-1490.53 78.22,-1490.53"/>
<text text-anchor="start" x="89.22" y="-1511.73" font-family="Helvetica,sans-Serif" font-weight="bold" font-size="32.00" fill="#29235c">paymentID</text>
<text text-anchor="start" x="243.91" y="-1511.73" font-family="Helvetica,sans-Serif" font-size="32.00" fill="#29235c"> &#160;&#160;&#160;</text>
<text text-anchor="start" x="352.99" y="-1511.73" font-family="Helvetica,sans-Serif" font-style="italic" font-size="32.00" fill="#29235c">string</text>
<polygon fill="#e7e2dd" stroke="transparent" points="78.22,-1430.53 78.22,-1490.53 442.22,-1490.53 442.22,-1430.53 78.22,-1430.53"/>
<polygon fill="none" stroke="#29235c" points="78.22,-1430.53 78.22,-1490.53 442.22,-1490.53 442.22,-1430.53 78.22,-1430.53"/>
<text text-anchor="start" x="89.22" y="-1450.73" font-family="Helvetica,sans-Serif" font-size="32.00" fill="#29235c">orderID &#160;&#160;&#160;</text>
<text text-anchor="start" x="352.99" y="-1451.73" font-family="Helvetica,sans-Serif" font-style="italic" font-size="32.00" fill="#29235c">string</text>
<polygon fill="#e7e2dd" stroke="transparent" points="78.22,-1370.53 78.22,-1430.53 442.22,-1430.53 442.22,-1370.53 78.22,-1370.53"/>
<polygon fill="none" stroke="#29235c" points="78.22,-1370.53 78.22,-1430.53 442.22,-1430.53 442.22,-1370.53 78.22,-1370.53"/>
<text text-anchor="start" x="88.73" y="-1390.73" font-family="Helvetica,sans-Serif" font-size="32.00" fill="#29235c">paymentMethod &#160;&#160;&#160;</text>
<text text-anchor="start" x="353.1" y="-1391.73" font-family="Helvetica,sans-Serif" font-style="italic" font-size="32.00" fill="#29235c">string</text>
<polygon fill="#e7e2dd" stroke="transparent" points="78.22,-1310.53 78.22,-1370.53 442.22,-1370.53 442.22,-1310.53 78.22,-1310.53"/>
<polygon fill="none" stroke="#29235c" points="78.22,-1310.53 78.22,-1370.53 442.22,-1370.53 442.22,-1310.53 78.22,-1310.53"/>
<text text-anchor="start" x="89.22" y="-1330.73" font-family="Helvetica,sans-Serif" font-size="32.00" fill="#29235c">amount &#160;&#160;&#160;</text>
<text text-anchor="start" x="320.99" y="-1331.73" font-family="Helvetica,sans-Serif" font-style="italic" font-size="32.00" fill="#29235c">decimal</text>
<polygon fill="none" stroke="#29235c" stroke-width="2" points="77.22,-1309.53 77.22,-1611.53 443.22,-1611.53 443.22,-1309.53 77.22,-1309.53"/>
</g>
<!-- Payment&#45;&gt;Order -->
<!-- Payment&#45;&gt;Order -->
<g id="edge8" class="edge">
<title>Payment:e&#45;&gt;Order:w</title>
<path fill="none" stroke="#29235c" stroke-width="3" d="M443.22,-1460.53C544.01,-1460.53 564.42,-1516.62 659.87,-1520.34"/>
<polygon fill="#29235c" stroke="#29235c" stroke-width="3" points="659.92,-1523.84 669.98,-1520.53 660.05,-1516.84 659.92,-1523.84"/>
<text text-anchor="middle" x="661.09" y="-1530.13" font-family="Helvetica,sans-Serif" font-size="32.00" fill="#29235c">1</text>
<text text-anchor="middle" x="436.99" y="-1470.13" font-family="Helvetica,sans-Serif" font-size="32.00" fill="#29235c">*</text>
</g>
<!-- Review -->
<g id="Review" class="node">
<title>Review</title>
<ellipse fill="none" stroke="black" stroke-width="0" cx="839.98" cy="-535.53" rx="207.78" ry="172.57"/>
<polygon fill="#1d71b8" stroke="transparent" points="694.98,-595.53 694.98,-655.53 984.98,-655.53 984.98,-595.53 694.98,-595.53"/>
<polygon fill="none" stroke="#29235c" points="694.98,-595.53 694.98,-655.53 984.98,-655.53 984.98,-595.53 694.98,-595.53"/>
<text text-anchor="start" x="725.29" y="-616.73" font-family="Helvetica,sans-Serif" font-weight="bold" font-size="32.00" fill="#ffffff"> &#160;&#160;&#160;&#160;&#160;&#160;Review &#160;&#160;&#160;&#160;&#160;&#160;</text>
<polygon fill="#e7e2dd" stroke="transparent" points="694.98,-535.53 694.98,-595.53 984.98,-595.53 984.98,-535.53 694.98,-535.53"/>
<polygon fill="none" stroke="#29235c" points="694.98,-535.53 694.98,-595.53 984.98,-595.53 984.98,-535.53 694.98,-535.53"/>
<text text-anchor="start" x="705.98" y="-556.73" font-family="Helvetica,sans-Serif" font-weight="bold" font-size="32.00" fill="#29235c">reviewID</text>
<text text-anchor="start" x="830.41" y="-556.73" font-family="Helvetica,sans-Serif" font-size="32.00" fill="#29235c"> &#160;&#160;&#160;</text>
<text text-anchor="start" x="895.76" y="-556.73" font-family="Helvetica,sans-Serif" font-style="italic" font-size="32.00" fill="#29235c">string</text>
<polygon fill="#e7e2dd" stroke="transparent" points="694.98,-475.53 694.98,-535.53 984.98,-535.53 984.98,-475.53 694.98,-475.53"/>
<polygon fill="none" stroke="#29235c" points="694.98,-475.53 694.98,-535.53 984.98,-535.53 984.98,-475.53 694.98,-475.53"/>
<text text-anchor="start" x="705.98" y="-495.73" font-family="Helvetica,sans-Serif" font-size="32.00" fill="#29235c">userID &#160;&#160;&#160;</text>
<text text-anchor="start" x="895.76" y="-496.73" font-family="Helvetica,sans-Serif" font-style="italic" font-size="32.00" fill="#29235c">string</text>
<polygon fill="#e7e2dd" stroke="transparent" points="694.98,-415.53 694.98,-475.53 984.98,-475.53 984.98,-415.53 694.98,-415.53"/>
<polygon fill="none" stroke="#29235c" points="694.98,-415.53 694.98,-475.53 984.98,-475.53 984.98,-415.53 694.98,-415.53"/>
<text text-anchor="start" x="705.86" y="-435.73" font-family="Helvetica,sans-Serif" font-size="32.00" fill="#29235c">reviewText &#160;&#160;&#160;</text>
<text text-anchor="start" x="895.87" y="-436.73" font-family="Helvetica,sans-Serif" font-style="italic" font-size="32.00" fill="#29235c">string</text>
<polygon fill="none" stroke="#29235c" stroke-width="2" points="693.98,-414.53 693.98,-656.53 985.98,-656.53 985.98,-414.53 693.98,-414.53"/>
</g>
<!-- Review&#45;&gt;User -->
<!-- Review&#45;&gt;User -->
<g id="edge10" class="edge">
<title>Review:e&#45;&gt;User:w</title>
<path fill="none" stroke="#29235c" stroke-width="3" d="M985.98,-505.53C1134.28,-505.53 1073.25,-741.09 1211.73,-752.13"/>
<polygon fill="#29235c" stroke="#29235c" stroke-width="3" points="1211.93,-755.64 1222.06,-752.53 1212.2,-748.65 1211.93,-755.64"/>
<text text-anchor="middle" x="1213.16" y="-723.73" font-family="Helvetica,sans-Serif" font-size="32.00" fill="#29235c">1</text>
<text text-anchor="middle" x="992.2" y="-515.13" font-family="Helvetica,sans-Serif" font-size="32.00" fill="#29235c">*</text>
</g>
<!-- Rating -->
<g id="Rating" class="node">
<title>Rating</title>
<ellipse fill="none" stroke="black" stroke-width="0" cx="839.98" cy="-172.53" rx="235.43" ry="172.57"/>
<polygon fill="#1d71b8" stroke="transparent" points="675.98,-232.53 675.98,-292.53 1004.98,-292.53 1004.98,-232.53 675.98,-232.53"/>
<polygon fill="none" stroke="#29235c" points="675.98,-232.53 675.98,-292.53 1004.98,-292.53 1004.98,-232.53 675.98,-232.53"/>
<text text-anchor="start" x="732" y="-253.73" font-family="Helvetica,sans-Serif" font-weight="bold" font-size="32.00" fill="#ffffff"> &#160;&#160;&#160;&#160;&#160;&#160;Rating &#160;&#160;&#160;&#160;&#160;&#160;</text>
<polygon fill="#e7e2dd" stroke="transparent" points="675.98,-172.53 675.98,-232.53 1004.98,-232.53 1004.98,-172.53 675.98,-172.53"/>
<polygon fill="none" stroke="#29235c" points="675.98,-172.53 675.98,-232.53 1004.98,-232.53 1004.98,-172.53 675.98,-172.53"/>
<text text-anchor="start" x="686.98" y="-193.73" font-family="Helvetica,sans-Serif" font-weight="bold" font-size="32.00" fill="#29235c">ratingID</text>
<text text-anchor="start" x="798.99" y="-193.73" font-family="Helvetica,sans-Serif" font-size="32.00" fill="#29235c"> &#160;&#160;&#160;</text>
<text text-anchor="start" x="915.76" y="-193.73" font-family="Helvetica,sans-Serif" font-style="italic" font-size="32.00" fill="#29235c">string</text>
<polygon fill="#e7e2dd" stroke="transparent" points="675.98,-112.53 675.98,-172.53 1004.98,-172.53 1004.98,-112.53 675.98,-112.53"/>
<polygon fill="none" stroke="#29235c" points="675.98,-112.53 675.98,-172.53 1004.98,-172.53 1004.98,-112.53 675.98,-112.53"/>
<text text-anchor="start" x="686.98" y="-132.73" font-family="Helvetica,sans-Serif" font-size="32.00" fill="#29235c">userID &#160;&#160;&#160;</text>
<text text-anchor="start" x="915.76" y="-133.73" font-family="Helvetica,sans-Serif" font-style="italic" font-size="32.00" fill="#29235c">string</text>
<polygon fill="#e7e2dd" stroke="transparent" points="675.98,-52.53 675.98,-112.53 1004.98,-112.53 1004.98,-52.53 675.98,-52.53"/>
<polygon fill="none" stroke="#29235c" points="675.98,-52.53 675.98,-112.53 1004.98,-112.53 1004.98,-52.53 675.98,-52.53"/>
<text text-anchor="start" x="686.78" y="-72.73" font-family="Helvetica,sans-Serif" font-size="32.00" fill="#29235c">ratingValue &#160;&#160;&#160;</text>
<text text-anchor="start" x="883.87" y="-73.73" font-family="Helvetica,sans-Serif" font-style="italic" font-size="32.00" fill="#29235c">decimal</text>
<polygon fill="none" stroke="#29235c" stroke-width="2" points="674.48,-51.53 674.48,-293.53 1005.48,-293.53 1005.48,-51.53 674.48,-51.53"/>
</g>
<!-- Rating&#45;&gt;User -->
<!-- Rating&#45;&gt;User -->
<g id="edge12" class="edge">
<title>Rating:e&#45;&gt;User:w</title>
<path fill="none" stroke="#29235c" stroke-width="3" d="M1005.98,-142.53C1113.33,-142.53 1084.19,-253.65 1123.53,-353.53 1189.19,-520.25 1045.07,-743.83 1211.98,-752.29"/>
<polygon fill="#29235c" stroke="#29235c" stroke-width="3" points="1211.97,-755.79 1222.06,-752.53 1212.14,-748.79 1211.97,-755.79"/>
<text text-anchor="middle" x="1230.95" y="-723.73" font-family="Helvetica,sans-Serif" font-size="32.00" fill="#29235c">1</text>
<text text-anchor="middle" x="1012.2" y="-113.73" font-family="Helvetica,sans-Serif" font-size="32.00" fill="#29235c">*</text>
</g>
</g>
</svg>
